<svg aria-hidden="true" style="position: absolute; width: 0; height: 0; overflow: hidden;" version="1.1" xmlns="http://www.w3.org/2000/svg" xmlns:xlink="http://www.w3.org/1999/xlink">
<defs>
<symbol id="icon-bootstrap" viewBox="0 0 32 32">
<path fill="#563d7c" style="fill: var(--color1, #563d7c)" d="M26.667 0h-21.333c-2.943 0.008-5.325 2.391-5.333 5.333v21.333c0 2.933 2.4 5.333 5.333 5.333h21.333c2.933 0 5.333-2.4 5.333-5.333v-21.333c0-2.933-2.4-5.333-5.333-5.333zM23.751 22.473c-0.267 0.643-0.689 1.209-1.231 1.645-0.56 0.453-1.269 0.827-2.143 1.093-0.872 0.271-1.909 0.407-3.111 0.407h-8.576v-18.667h9.069c1.677 0 3.021 0.377 4.027 1.147 1.013 0.773 1.517 1.925 1.517 3.48 0 0.94-0.229 1.747-0.691 2.413-0.459 0.663-1.12 1.181-1.973 1.541v0.061c1.139 0.24 2.020 0.78 2.6 1.62s0.877 1.901 0.877 3.183c0 0.717-0.139 1.4-0.4 2.037zM20.049 17.873c-0.547-0.5-1.315-0.744-2.307-0.744h-5.763v5.824h5.779c0.987 0 1.76-0.256 2.307-0.773 0.547-0.513 0.827-1.245 0.827-2.187-0.009-0.92-0.28-1.632-0.827-2.12zM19.249 14.109c0.528-0.448 0.787-1.089 0.787-1.925 0-0.939-0.233-1.605-0.707-1.987-0.469-0.38-1.147-0.577-2.037-0.577h-5.333v5.151h5.333c0.777 0 1.44-0.227 1.957-0.661z"></path>
</symbol>
<symbol id="icon-css3" viewBox="0 0 32 32">
<path fill="#1572b6" style="fill: var(--color2, #1572b6)" d="M2 0h28l-2.547 28.751-11.484 3.249-11.42-3.251zM24.787 5.884l-17.573-0.004 0.284 3.496 13.5 0.003-0.34 3.621h-8.853l0.32 3.431h8.243l-0.488 4.697-3.88 1.072-3.941-1.080-0.251-2.813h-3.48l0.387 5.14 7.287 2.271 7.164-2.040z"></path>
</symbol>
<symbol id="icon-facebook" viewBox="0 0 32 32">
<path fill="#1877f2" style="fill: var(--color3, #1877f2)" d="M31.997 15.999c0-8.836-7.163-15.999-15.999-15.999s-15.999 7.163-15.999 15.999c0 7.985 5.851 14.604 13.499 15.804v-11.18h-4.062v-4.625h4.062v-3.525c0-4.010 2.389-6.225 6.043-6.225 1.75 0 3.581 0.313 3.581 0.313v3.937h-2.017c-1.987 0-2.607 1.233-2.607 2.498v3.001h4.437l-0.709 4.625h-3.728v11.18c7.649-1.2 13.499-7.819 13.499-15.804z"></path>
</symbol>
<symbol id="icon-git" viewBox="0 0 32 32">
<path fill="#f05032" style="fill: var(--color4, #f05032)" d="M31.395 14.573l-13.972-13.971c-0.805-0.804-2.109-0.804-2.917 0l-2.895 2.9 3.68 3.68c0.86-0.287 1.839-0.093 2.519 0.588 0.688 0.687 0.877 1.677 0.584 2.533l3.544 3.547c0.86-0.297 1.849-0.104 2.533 0.58 0.961 0.96 0.961 2.512 0 3.472-0.959 0.959-2.508 0.959-3.467 0-0.719-0.721-0.899-1.783-0.539-2.661l-3.319-3.301v8.7c0.235 0.115 0.456 0.271 0.651 0.464 0.951 0.961 0.951 2.511 0 3.467-0.959 0.961-2.519 0.961-3.479 0-0.959-0.959-0.959-2.505 0-3.464 0.243-0.24 0.516-0.421 0.807-0.541v-8.785c-0.289-0.121-0.565-0.296-0.8-0.535-0.727-0.727-0.901-1.789-0.528-2.679l-3.616-3.633-9.581 9.575c-0.8 0.807-0.8 2.112 0 2.919l13.973 13.969c0.805 0.805 2.109 0.805 2.915 0l13.907-13.907c0.807-0.804 0.807-2.109 0-2.916z"></path>
</symbol>
<symbol id="icon-github" viewBox="0 0 32 32">
<path d="M16 0.396c-8.84 0-16 7.164-16 16 0 7.071 4.584 13.067 10.94 15.18 0.8 0.151 1.093-0.344 1.093-0.769 0-0.38-0.013-1.387-0.020-2.72-4.451 0.965-5.389-2.147-5.389-2.147-0.728-1.847-1.78-2.34-1.78-2.34-1.449-0.992 0.112-0.972 0.112-0.972 1.607 0.112 2.451 1.648 2.451 1.648 1.427 2.447 3.745 1.74 4.66 1.331 0.144-1.035 0.556-1.74 1.013-2.14-3.553-0.4-7.288-1.776-7.288-7.907 0-1.747 0.62-3.173 1.647-4.293-0.18-0.404-0.72-2.031 0.14-4.235 0 0 1.34-0.429 4.4 1.64 1.28-0.356 2.64-0.532 4-0.54 1.36 0.008 2.72 0.184 4 0.54 3.040-2.069 4.38-1.64 4.38-1.64 0.86 2.204 0.32 3.831 0.16 4.235 1.020 1.12 1.64 2.547 1.64 4.293 0 6.147-3.74 7.5-7.3 7.893 0.56 0.48 1.080 1.461 1.080 2.96 0 2.141-0.020 3.861-0.020 4.381 0 0.42 0.28 0.92 1.1 0.76 6.401-2.099 10.981-8.099 10.981-15.159 0-8.836-7.164-16-16-16z"></path>
</symbol>
<symbol id="icon-gmail" viewBox="0 0 32 32">
<path fill="#d14836" style="fill: var(--color5, #d14836)" d="M32 6v20c0 1.133-0.867 2-2 2h-2v-18.151l-12 8.617-12-8.617v18.151h-2c-1.135 0-2-0.867-2-2v-20c0-0.567 0.216-1.067 0.575-1.424 0.359-0.363 0.86-0.576 1.425-0.576h0.667l13.333 9.667 13.333-9.667h0.667c0.567 0 1.067 0.216 1.425 0.576 0.36 0.357 0.575 0.857 0.575 1.424z"></path>
</symbol>
<symbol id="icon-html5" viewBox="0 0 32 32">
<path fill="#e34f26" style="fill: var(--color6, #e34f26)" d="M2 0h28l-2.547 28.751-11.484 3.249-11.419-3.251zM11.375 13l-0.309-3.624 13.412 0.004 0.307-3.496-17.568-0.004 0.931 10.68h12.168l-0.435 4.568-3.88 1.072-3.94-1.080-0.251-2.813h-3.479l0.44 5.561 7.229 1.933 7.172-1.924 0.992-10.876z"></path>
</symbol>
<symbol id="icon-instagram" viewBox="0 0 32 32">
<path fill="#e4405f" style="fill: var(--color7, #e4405f)" d="M16 0c-4.347 0-4.889 0.020-6.596 0.096-1.704 0.080-2.864 0.348-3.884 0.744-1.052 0.408-1.945 0.956-2.835 1.845s-1.439 1.781-1.845 2.835c-0.396 1.020-0.665 2.18-0.744 3.884-0.080 1.707-0.096 2.249-0.096 6.596s0.020 4.889 0.096 6.596c0.080 1.703 0.348 2.864 0.744 3.884 0.408 1.051 0.956 1.945 1.845 2.835 0.889 0.888 1.781 1.439 2.835 1.845 1.021 0.395 2.181 0.665 3.884 0.744 1.707 0.080 2.249 0.096 6.596 0.096s4.889-0.020 6.596-0.096c1.703-0.080 2.864-0.349 3.884-0.744 1.051-0.408 1.945-0.957 2.835-1.845 0.888-0.889 1.439-1.78 1.845-2.835 0.395-1.020 0.665-2.181 0.744-3.884 0.080-1.707 0.096-2.249 0.096-6.596s-0.020-4.889-0.096-6.596c-0.080-1.703-0.349-2.865-0.744-3.884-0.408-1.052-0.957-1.945-1.845-2.835-0.889-0.889-1.78-1.439-2.835-1.845-1.020-0.396-2.181-0.665-3.884-0.744-1.707-0.080-2.249-0.096-6.596-0.096zM16 2.88c4.271 0 4.78 0.021 6.467 0.095 1.56 0.073 2.407 0.332 2.969 0.553 0.749 0.289 1.28 0.636 1.843 1.195 0.559 0.56 0.905 1.092 1.195 1.841 0.219 0.563 0.48 1.409 0.551 2.969 0.076 1.688 0.093 2.195 0.093 6.467s-0.020 4.78-0.099 6.467c-0.081 1.56-0.341 2.407-0.561 2.969-0.299 0.749-0.639 1.28-1.199 1.843-0.559 0.559-1.099 0.905-1.84 1.195-0.56 0.219-1.42 0.48-2.98 0.551-1.699 0.076-2.199 0.093-6.479 0.093-4.281 0-4.781-0.020-6.479-0.099-1.561-0.081-2.421-0.341-2.981-0.561-0.759-0.299-1.28-0.639-1.839-1.199-0.561-0.559-0.92-1.099-1.2-1.84-0.22-0.56-0.479-1.42-0.56-2.98-0.060-1.68-0.081-2.199-0.081-6.459 0-4.261 0.021-4.781 0.081-6.481 0.081-1.56 0.34-2.419 0.56-2.979 0.28-0.76 0.639-1.28 1.2-1.841 0.559-0.559 1.080-0.919 1.839-1.197 0.56-0.221 1.401-0.481 2.961-0.561 1.7-0.060 2.2-0.080 6.479-0.080zM16 7.784c-4.54 0-8.216 3.68-8.216 8.216 0 4.54 3.68 8.216 8.216 8.216 4.54 0 8.216-3.68 8.216-8.216 0-4.54-3.68-8.216-8.216-8.216zM16 21.333c-2.947 0-5.333-2.387-5.333-5.333s2.387-5.333 5.333-5.333 5.333 2.387 5.333 5.333-2.387 5.333-5.333 5.333zM26.461 7.46c0 1.060-0.861 1.92-1.92 1.92-1.060 0-1.92-0.861-1.92-1.92s0.861-1.919 1.92-1.919c1.057-0.001 1.92 0.86 1.92 1.919z"></path>
</symbol>
<symbol id="icon-javascript" viewBox="0 0 32 32">
<path fill="#f7df1e" style="fill: var(--color8, #f7df1e)" d="M0 0h32v32h-32zM29.379 24.368c-0.233-1.46-1.184-2.687-4.004-3.831-0.981-0.46-2.072-0.78-2.396-1.52-0.121-0.44-0.14-0.68-0.061-0.94 0.2-0.861 1.22-1.12 2.020-0.88 0.52 0.16 1 0.56 1.301 1.2 1.379-0.901 1.379-0.901 2.34-1.5-0.36-0.56-0.539-0.801-0.781-1.040-0.84-0.94-1.959-1.42-3.779-1.379l-0.94 0.119c-0.901 0.22-1.76 0.7-2.28 1.34-1.52 1.721-1.081 4.721 0.759 5.961 1.82 1.36 4.481 1.659 4.821 2.94 0.32 1.56-1.16 2.060-2.621 1.88-1.081-0.24-1.68-0.781-2.34-1.781l-2.44 1.401c0.28 0.64 0.6 0.919 1.080 1.479 2.32 2.341 8.12 2.221 9.161-1.339 0.039-0.12 0.32-0.94 0.099-2.2zM17.401 14.708h-2.997c0 2.584-0.012 5.152-0.012 7.74 0 1.643 0.084 3.151-0.184 3.615-0.44 0.919-1.573 0.801-2.088 0.64-0.528-0.261-0.796-0.621-1.107-1.14-0.084-0.14-0.147-0.261-0.169-0.261l-2.433 1.5c0.407 0.84 1 1.563 1.765 2.023 1.14 0.68 2.672 0.9 4.276 0.54 1.044-0.301 1.944-0.921 2.415-1.881 0.68-1.24 0.536-2.76 0.529-4.461 0.016-2.739 0-5.479 0-8.239z"></path>
</symbol>
<symbol id="icon-jquery" viewBox="0 0 32 32">
<path fill="#0769ad" style="fill: var(--color9, #0769ad)" d="M2.045 7.832c-2.831 4.067-2.48 9.356-0.316 13.675 0.049 0.105 0.104 0.205 0.157 0.305 0.031 0.069 0.065 0.133 0.103 0.199 0.017 0.037 0.041 0.076 0.063 0.111 0.035 0.069 0.072 0.136 0.108 0.203l0.209 0.353c0.039 0.065 0.076 0.129 0.12 0.195 0.073 0.125 0.16 0.249 0.236 0.375 0.035 0.052 0.067 0.104 0.105 0.156 0.148 0.232 0.284 0.425 0.428 0.612l-0.015-0.020c0.104 0.143 0.208 0.281 0.32 0.42 0.036 0.051 0.076 0.101 0.113 0.152l0.295 0.359c0.036 0.041 0.072 0.089 0.111 0.132 0.131 0.157 0.269 0.311 0.408 0.465 0 0.003 0.004 0.005 0.007 0.009 0.172 0.217 0.358 0.409 0.56 0.582l0.006 0.005c0.107 0.109 0.213 0.219 0.327 0.325l0.135 0.129c0.148 0.139 0.296 0.277 0.452 0.411 0.003 0 0.004 0.003 0.007 0.004l0.076 0.067c0.136 0.119 0.273 0.237 0.413 0.347l0.167 0.14c0.113 0.091 0.231 0.177 0.347 0.267l0.181 0.139c0.124 0.093 0.256 0.185 0.383 0.276 0.047 0.033 0.093 0.067 0.141 0.097l0.039 0.031 0.375 0.247 0.16 0.107c0.196 0.125 0.391 0.244 0.584 0.361 0.056 0.028 0.112 0.059 0.164 0.091 0.144 0.083 0.293 0.167 0.439 0.244 0.080 0.045 0.163 0.084 0.245 0.125 0.1 0.056 0.204 0.111 0.311 0.167 0.029 0.009 0.054 0.019 0.077 0.032l-0.002-0.001c0.044 0.020 0.085 0.041 0.128 0.063 0.16 0.080 0.327 0.156 0.5 0.232 0.032 0.013 0.067 0.027 0.101 0.045 0.192 0.084 0.384 0.164 0.583 0.243 0.045 0.013 0.093 0.036 0.14 0.053 0.18 0.068 0.365 0.137 0.548 0.203l0.067 0.024c0.204 0.069 0.405 0.136 0.612 0.2 0.048 0.013 0.097 0.031 0.148 0.044 0.212 0.064 0.417 0.14 0.631 0.181 13.68 2.493 17.656-8.225 17.656-8.225-3.34 4.349-9.267 5.496-14.88 4.22-0.208-0.048-0.416-0.115-0.625-0.176-0.382-0.11-0.633-0.192-0.882-0.28l0.126 0.039-0.083-0.032c-0.181-0.061-0.356-0.129-0.533-0.197-0.034-0.015-0.082-0.033-0.132-0.050l-0.015-0.004c-0.196-0.079-0.387-0.16-0.576-0.244-0.041-0.013-0.076-0.032-0.117-0.048-0.35-0.155-0.508-0.231-0.665-0.308l0.184 0.081c-0.049-0.021-0.093-0.044-0.141-0.069-0.125-0.059-0.251-0.125-0.373-0.189-0.114-0.054-0.196-0.097-0.276-0.142l0.027 0.014c-0.151-0.080-0.301-0.167-0.452-0.249-0.045-0.032-0.097-0.059-0.149-0.088-0.289-0.169-0.479-0.288-0.668-0.409l0.084 0.050c-0.064-0.040-0.115-0.075-0.165-0.111l0.008 0.006c-0.172-0.106-0.308-0.197-0.44-0.291l0.024 0.017c-0.047-0.031-0.089-0.064-0.137-0.097-0.17-0.118-0.298-0.211-0.424-0.306l0.032 0.023c-0.056-0.045-0.116-0.088-0.176-0.133-0.117-0.092-0.236-0.18-0.353-0.277l-0.157-0.125c-0.174-0.14-0.319-0.263-0.461-0.388l0.016 0.013c-0.015-0.014-0.031-0.028-0.048-0.039l-0.001-0.001-0.463-0.421-0.133-0.125c-0.109-0.111-0.221-0.217-0.333-0.327l-0.129-0.133c-0.138-0.137-0.273-0.278-0.404-0.421l-0.008-0.009-0.020-0.021c-0.141-0.155-0.279-0.312-0.417-0.472-0.036-0.041-0.069-0.085-0.107-0.129l-0.301-0.369c-0.105-0.131-0.254-0.326-0.4-0.522l-0.054-0.075c-3.113-4.251-4.24-10.117-1.748-14.929zM10.828 4.407c-2.052 2.945-1.936 6.884-0.339 9.999 0.296 0.584 0.596 1.078 0.928 1.547l-0.025-0.038c0.307 0.44 0.645 0.96 1.056 1.315 0.143 0.163 0.297 0.32 0.459 0.479l0.12 0.12c0.152 0.147 0.308 0.291 0.467 0.433l0.020 0.017c0.16 0.141 0.34 0.29 0.524 0.435l0.028 0.021c0.045 0.031 0.084 0.067 0.128 0.097 0.187 0.144 0.375 0.283 0.569 0.42l0.020 0.012c0.083 0.060 0.171 0.115 0.264 0.173 0.037 0.024 0.080 0.056 0.12 0.080 0.141 0.091 0.28 0.176 0.423 0.263 0.023 0.009 0.043 0.021 0.064 0.031 0.12 0.073 0.251 0.144 0.376 0.209 0.044 0.027 0.087 0.047 0.132 0.072 0.089 0.044 0.177 0.091 0.263 0.136l0.043 0.019c0.18 0.088 0.364 0.171 0.544 0.253 0.045 0.017 0.084 0.032 0.123 0.051 0.148 0.064 0.299 0.125 0.447 0.183 0.067 0.023 0.129 0.049 0.192 0.069 0.136 0.051 0.279 0.097 0.413 0.144l0.187 0.060c0.195 0.060 0.392 0.139 0.597 0.172 10.56 1.751 13.005-6.383 13.005-6.383-2.201 3.168-6.461 4.677-11.001 3.499-0.277-0.071-0.476-0.13-0.673-0.195l0.076 0.022c-0.064-0.017-0.12-0.037-0.181-0.056-0.139-0.048-0.281-0.095-0.416-0.145l-0.192-0.072c-0.149-0.060-0.301-0.116-0.447-0.18-0.045-0.020-0.087-0.033-0.121-0.053-0.187-0.084-0.375-0.167-0.556-0.256l-0.275-0.143-0.159-0.080c-0.123-0.064-0.236-0.131-0.353-0.2-0.033-0.016-0.060-0.031-0.086-0.047l0.003 0.002c-0.141-0.088-0.288-0.173-0.423-0.264-0.045-0.025-0.087-0.056-0.129-0.083l-0.277-0.181c-0.192-0.133-0.38-0.277-0.569-0.416-0.043-0.039-0.084-0.071-0.125-0.105-1.996-1.569-3.571-3.715-4.317-6.144-0.787-2.525-0.613-5.357 0.745-7.656zM18.213 1.845c-1.211 1.776-1.327 3.981-0.493 5.94 0.885 2.080 2.696 3.713 4.805 4.487 0.087 0.033 0.171 0.061 0.26 0.093l0.117 0.036c0.123 0.039 0.247 0.084 0.373 0.112 5.835 1.125 7.413-2.996 7.839-3.601-1.389 1.995-3.719 2.473-6.576 1.779-0.279-0.070-0.509-0.143-0.732-0.228l0.044 0.015c-0.337-0.119-0.609-0.233-0.873-0.361l0.050 0.022c-0.55-0.269-1.022-0.562-1.462-0.896l0.021 0.016c-2.56-1.939-4.145-5.64-2.476-8.655z"></path>
</symbol>
<symbol id="icon-linkedin" viewBox="0 0 32 32">
<path fill="#0077b5" style="fill: var(--color10, #0077b5)" d="M27.263 27.269h-4.739v-7.425c0-1.771-0.036-4.049-2.469-4.049-2.471 0-2.848 1.927-2.848 3.919v7.556h-4.739v-15.269h4.552v2.081h0.061c0.636-1.2 2.183-2.467 4.493-2.467 4.801 0 5.689 3.16 5.689 7.273zM7.116 9.911c-1.525 0-2.751-1.235-2.751-2.753 0-1.517 1.227-2.751 2.751-2.751 1.52 0 2.752 1.233 2.752 2.751 0 1.519-1.233 2.753-2.752 2.753zM9.492 27.269h-4.752v-15.269h4.752zM29.633 0h-27.272c-1.305 0-2.361 1.032-2.361 2.305v27.389c0 1.275 1.056 2.305 2.361 2.305h27.268c1.304 0 2.371-1.031 2.371-2.305v-27.389c0-1.273-1.067-2.305-2.371-2.305z"></path>
</symbol>
<symbol id="icon-npm" viewBox="0 0 32 32">
<path fill="#cb3837" style="fill: var(--color11, #cb3837)" d="M0 9.779v10.667h8.888v1.776h7.112v-1.776h16v-10.667zM8.888 18.664h-1.776v-5.333h-1.78v5.333h-3.552v-7.108h7.108zM14.221 18.664v1.781h-3.553v-8.889h7.112v7.109h-3.559zM30.223 18.664h-1.773v-5.333h-1.781v5.333h-1.78v-5.333h-1.773v5.333h-3.561v-7.108h10.669zM14.22 13.333h1.78v3.556h-1.78z"></path>
</symbol>
<symbol id="icon-sass" viewBox="0 0 32 32">
<path fill="#c69" style="fill: var(--color12, #c69)" d="M16 0c8.836 0 16 7.164 16 16s-7.164 16-16 16-16-7.164-16-16 7.164-16 16-16zM12.82 21.331c0.233 0.86 0.208 1.664-0.032 2.389l-0.087 0.24c-0.032 0.081-0.069 0.16-0.104 0.235-0.187 0.387-0.435 0.747-0.74 1.080-0.931 1.012-2.229 1.396-2.787 1.073-0.6-0.349-0.301-1.78 0.779-2.92 1.161-1.224 2.827-2.012 2.827-2.012v-0.004zM26.035 6.849c-0.723-2.844-5.436-3.779-9.896-2.193-2.652 0.943-5.525 2.424-7.591 4.356-2.457 2.295-2.848 4.295-2.687 5.131 0.569 2.948 4.609 4.876 6.271 6.307v0.008c-0.489 0.24-4.075 2.039-4.915 3.9-0.9 1.96 0.14 3.361 0.82 3.54 2.1 0.581 4.26-0.48 5.42-2.199 1.12-1.681 1.021-3.841 0.539-4.901 0.661-0.18 1.44-0.26 2.44-0.139 2.801 0.32 3.361 2.080 3.24 2.8-0.12 0.719-0.697 1.139-0.899 1.259-0.2 0.121-0.26 0.16-0.241 0.241 0.020 0.12 0.121 0.12 0.28 0.1 0.22-0.040 1.461-0.6 1.521-1.961 0.060-1.72-1.581-3.639-4.5-3.6-1.2 0.021-1.961 0.121-2.5 0.341-0.040-0.060-0.081-0.1-0.14-0.14-1.8-1.94-5.14-3.3-5-5.88 0.040-0.94 0.38-3.419 6.4-6.419 4.94-2.461 8.881-1.78 9.561-0.28 0.977 2.139-2.101 6.12-7.241 6.699-1.96 0.22-2.98-0.539-3.241-0.82-0.279-0.3-0.319-0.32-0.419-0.259-0.16 0.080-0.060 0.34 0 0.5 0.16 0.4 0.78 1.1 1.861 1.46 0.939 0.3 3.24 0.479 6-0.6 3.099-1.199 5.519-4.54 4.819-7.34z"></path>
</symbol>
<symbol id="icon-twitter" viewBox="0 0 32 32">
<path fill="#1da1f2" style="fill: var(--color13, #1da1f2)" d="M31.939 6.092c-1.18 0.519-2.44 0.872-3.767 1.033 1.352-0.815 2.392-2.099 2.884-3.631-1.268 0.74-2.673 1.279-4.169 1.579-1.195-1.279-2.897-2.079-4.788-2.079-3.623 0-6.56 2.937-6.56 6.556 0 0.52 0.060 1.020 0.169 1.499-5.453-0.257-10.287-2.876-13.521-6.835-0.569 0.963-0.888 2.081-0.888 3.3 0 2.28 1.16 4.284 2.917 5.461-1.076-0.035-2.088-0.331-2.971-0.821v0.081c0 3.18 2.257 5.832 5.261 6.436-0.551 0.148-1.132 0.228-1.728 0.228-0.419 0-0.82-0.040-1.221-0.115 0.841 2.604 3.26 4.503 6.139 4.556-2.24 1.759-5.079 2.807-8.136 2.807-0.52 0-1.039-0.031-1.56-0.089 2.919 1.859 6.357 2.945 10.076 2.945 12.072 0 18.665-9.995 18.665-18.648 0-0.279 0-0.56-0.020-0.84 1.281-0.919 2.4-2.080 3.28-3.397z"></path>
</symbol>
<symbol id="icon-wordpress" viewBox="0 0 32 32">
<path fill="#21759b" style="fill: var(--color14, #21759b)" d="M28.625 9.1c1.12 2.049 1.757 4.4 1.757 6.9 0 5.305-2.875 9.941-7.151 12.433l4.393-12.703c0.82-2.053 1.093-3.695 1.093-5.152 0-0.54-0.035-1.040-0.093-1.48zM17.984 9.239c0.863-0.040 1.643-0.14 1.643-0.14 0.776-0.1 0.685-1.24-0.089-1.199 0 0-2.34 0.18-3.84 0.18-1.419 0-3.8-0.2-3.8-0.2-0.78-0.040-0.881 1.14-0.1 1.18 0 0 0.72 0.081 1.5 0.12l2.24 6.14-3.16 9.44-5.239-15.56c0.865-0.040 1.645-0.133 1.645-0.133 0.78-0.1 0.688-1.24-0.087-1.195 0 0-2.328 0.184-3.832 0.184-0.267 0-0.584-0.011-0.92-0.020 2.603-3.836 7.035-6.416 12.055-6.416 3.745 0 7.153 1.429 9.715 3.777-0.061-0.004-0.121-0.012-0.188-0.012-1.413 0-2.416 1.231-2.416 2.552 0 1.187 0.684 2.191 1.413 3.375 0.548 0.96 1.187 2.191 1.187 3.969 0 1.22-0.472 2.659-1.095 4.639l-1.433 4.78-5.2-15.48zM16 30.379c-1.412 0-2.775-0.204-4.064-0.583l4.316-12.541 4.42 12.116c0.032 0.071 0.067 0.135 0.104 0.199-1.493 0.524-3.1 0.812-4.776 0.812zM1.615 16c0-2.085 0.448-4.067 1.247-5.853l6.859 18.799c-4.795-2.332-8.104-7.251-8.105-12.945zM16 0c-8.82 0-16 7.18-16 16s7.18 16 16 16 16-7.18 16-16-7.18-16-16-16z"></path>
</symbol>
<symbol id="icon-user" viewBox="0 0 20 28">
<path d="M20 21.859c0 2.281-1.5 4.141-3.328 4.141h-13.344c-1.828 0-3.328-1.859-3.328-4.141 0-4.109 1.016-8.859 5.109-8.859 1.266 1.234 2.984 2 4.891 2s3.625-0.766 4.891-2c4.094 0 5.109 4.75 5.109 8.859zM16 8c0 3.313-2.688 6-6 6s-6-2.688-6-6 2.688-6 6-6 6 2.688 6 6z"></path>
</symbol>
<symbol id="icon-home" viewBox="0 0 26 28">
<path d="M22 15.5v7.5c0 0.547-0.453 1-1 1h-6v-6h-4v6h-6c-0.547 0-1-0.453-1-1v-7.5c0-0.031 0.016-0.063 0.016-0.094l8.984-7.406 8.984 7.406c0.016 0.031 0.016 0.063 0.016 0.094zM25.484 14.422l-0.969 1.156c-0.078 0.094-0.203 0.156-0.328 0.172h-0.047c-0.125 0-0.234-0.031-0.328-0.109l-10.813-9.016-10.813 9.016c-0.109 0.078-0.234 0.125-0.375 0.109-0.125-0.016-0.25-0.078-0.328-0.172l-0.969-1.156c-0.172-0.203-0.141-0.531 0.063-0.703l11.234-9.359c0.656-0.547 1.719-0.547 2.375 0l3.813 3.187v-3.047c0-0.281 0.219-0.5 0.5-0.5h3c0.281 0 0.5 0.219 0.5 0.5v6.375l3.422 2.844c0.203 0.172 0.234 0.5 0.063 0.703z"></path>
</symbol>
<symbol id="icon-phone-square" viewBox="0 0 24 28">
<path d="M20 18.641c0-0.078 0-0.172-0.031-0.25-0.094-0.281-2.375-1.437-2.812-1.687-0.297-0.172-0.656-0.516-1.016-0.516-0.688 0-1.703 2.047-2.312 2.047-0.313 0-0.703-0.281-0.984-0.438-2.063-1.156-3.484-2.578-4.641-4.641-0.156-0.281-0.438-0.672-0.438-0.984 0-0.609 2.047-1.625 2.047-2.312 0-0.359-0.344-0.719-0.516-1.016-0.25-0.438-1.406-2.719-1.687-2.812-0.078-0.031-0.172-0.031-0.25-0.031-0.406 0-1.203 0.187-1.578 0.344-1.031 0.469-1.781 2.438-1.781 3.516 0 1.047 0.422 2 0.781 2.969 1.25 3.422 4.969 7.141 8.391 8.391 0.969 0.359 1.922 0.781 2.969 0.781 1.078 0 3.047-0.75 3.516-1.781 0.156-0.375 0.344-1.172 0.344-1.578zM24 6.5v15c0 2.484-2.016 4.5-4.5 4.5h-15c-2.484 0-4.5-2.016-4.5-4.5v-15c0-2.484 2.016-4.5 4.5-4.5h15c2.484 0 4.5 2.016 4.5 4.5z"></path>
</symbol>
<symbol id="icon-briefcase" viewBox="0 0 28 28">
<path d="M10 4h8v-2h-8v2zM28 14v7.5c0 1.375-1.125 2.5-2.5 2.5h-23c-1.375 0-2.5-1.125-2.5-2.5v-7.5h10.5v2.5c0 0.547 0.453 1 1 1h5c0.547 0 1-0.453 1-1v-2.5h10.5zM16 14v2h-4v-2h4zM28 6.5v6h-28v-6c0-1.375 1.125-2.5 2.5-2.5h5.5v-2.5c0-0.828 0.672-1.5 1.5-1.5h9c0.828 0 1.5 0.672 1.5 1.5v2.5h5.5c1.375 0 2.5 1.125 2.5 2.5z"></path>
</symbol>
<symbol id="icon-code" viewBox="0 0 30 28">
<path d="M9.641 21.859l-0.781 0.781c-0.203 0.203-0.516 0.203-0.719 0l-7.281-7.281c-0.203-0.203-0.203-0.516 0-0.719l7.281-7.281c0.203-0.203 0.516-0.203 0.719 0l0.781 0.781c0.203 0.203 0.203 0.516 0 0.719l-6.141 6.141 6.141 6.141c0.203 0.203 0.203 0.516 0 0.719zM18.875 5.187l-5.828 20.172c-0.078 0.266-0.359 0.422-0.609 0.344l-0.969-0.266c-0.266-0.078-0.422-0.359-0.344-0.625l5.828-20.172c0.078-0.266 0.359-0.422 0.609-0.344l0.969 0.266c0.266 0.078 0.422 0.359 0.344 0.625zM29.141 15.359l-7.281 7.281c-0.203 0.203-0.516 0.203-0.719 0l-0.781-0.781c-0.203-0.203-0.203-0.516 0-0.719l6.141-6.141-6.141-6.141c-0.203-0.203-0.203-0.516 0-0.719l0.781-0.781c0.203-0.203 0.516-0.203 0.719 0l7.281 7.281c0.203 0.203 0.203 0.516 0 0.719z"></path>
</symbol>
</defs>
</svg>
